<svg id="Layer_1" data-name="Layer 1" xmlns="http://www.w3.org/2000/svg" viewBox="0 0 400 400"><defs><style>.cls-1{fill:#61c0e6;}.cls-2{fill:#274f9c;}.cls-3{fill:#4e9fd2;}.cls-4{fill:#ffb5a7;}.cls-5{fill:#ff9f8c;}.cls-6{fill:#767777;}.cls-7{fill:#3c3d3f;}.cls-8{fill:#fff;}.cls-9{fill:#e7e8e8;}.cls-10{fill:#989999;}.cls-11{fill:#7f8080;}</style></defs><path class="cls-1" d="M55.73,77.77a1.92,1.92,0,0,1-1.93-1.58c-.37-1.49-5.44-4.6-10.33-7.61L42,67.65c-11.62-7.18-23-15-24-24.22a8.33,8.33,0,0,1,2.24-6.63c3.91-4.32,13-6.91,24.42-6.91A60,60,0,0,1,61.48,32.1,16.19,16.19,0,0,1,68.1,36c8.15,8,6.83,23,6.77,23.62a1.07,1.07,0,0,1-.22.54C72.23,63.08,60,77.77,55.73,77.77Z"/><path class="cls-2" d="M44.64,30.89a59,59,0,0,1,16.55,2.17,15,15,0,0,1,6.21,3.63c7.9,7.73,6.47,22.81,6.47,22.81S59.7,76.77,55.73,76.77a.93.93,0,0,1-1-.82c-.51-2-5.86-5.19-12.28-9.15C32.5,60.63,19.91,52.48,19,43.33,18.1,34.6,31.43,30.89,44.64,30.89m0-2h0c-11.66,0-21.07,2.71-25.16,7.24A9.36,9.36,0,0,0,17,43.53c1,9.71,12.62,17.66,24.44,25l1.52.93c4.17,2.56,9.35,5.75,9.89,7a2.9,2.9,0,0,0,2.89,2.31c1.65,0,4.38-1.1,12-9.27,4-4.31,7.63-8.68,7.67-8.73a2,2,0,0,0,.45-1.08c.06-.65,1.41-16.13-7.07-24.43a17.2,17.2,0,0,0-7-4.12,60.94,60.94,0,0,0-17.13-2.25Z"/><path class="cls-3" d="M67.4,36.69c7.9,7.73,6.47,22.81,6.47,22.81S56.06,81.21,54.77,76c-.51-2-5.86-5.19-12.28-9.15A96.71,96.71,0,0,1,67.4,36.69Z"/><path class="cls-2" d="M64.59,67.65a1,1,0,0,1-.92-.59A40.11,40.11,0,0,0,41.84,46.2a1,1,0,0,1,.62-1.9,41.39,41.39,0,0,1,23,22A1,1,0,0,1,65,67.56.93.93,0,0,1,64.59,67.65Z"/><path class="cls-1" d="M198.25,57c-4.23,0-16.51-14.68-18.93-17.62a1.11,1.11,0,0,1-.22-.54A41.06,41.06,0,0,1,181,23.13c2.22-6.24,6.09-10.23,11.5-11.86a60,60,0,0,1,16.84-2.21c11.38,0,20.51,2.59,24.42,6.91A8.29,8.29,0,0,1,236,22.6c-.87,8.57-11.08,16.11-20.95,22.34-1.56,1-3.09,1.93-4.55,2.82-4.89,3-9.94,6.11-10.31,7.61A1.92,1.92,0,0,1,198.25,57Z"/><path class="cls-2" d="M209.33,10.06c13.21,0,26.54,3.71,25.66,12.44-.84,8.24-11.15,15.69-20.49,21.6-7.69,4.85-14.72,8.65-15.3,11a.92.92,0,0,1-.95.82c-4,0-18.15-17.26-18.15-17.26a40.49,40.49,0,0,1,1.83-15.23c1.73-4.85,4.94-9.45,10.85-11.23a59,59,0,0,1,16.55-2.17m0-2v0h0a61,61,0,0,0-17.14,2.25c-5.72,1.73-9.81,5.93-12.14,12.48a42.14,42.14,0,0,0-2,16.09,2,2,0,0,0,.45,1.08s3.63,4.42,7.67,8.73c7.65,8.16,10.37,9.26,12,9.26a2.9,2.9,0,0,0,2.89-2.34c.49-1.24,5.69-4.43,9.86-7l4.57-2.83C225.64,39.42,236.06,31.7,237,22.7a9.36,9.36,0,0,0-2.49-7.4c-4.09-4.53-13.5-7.24-25.16-7.24Z"/><path class="cls-3" d="M214.5,44.1c-7.69,4.85-14.72,8.65-15.3,11-1.29,5.25-19.1-16.44-19.1-16.44a40.49,40.49,0,0,1,1.83-15.23,116.61,116.61,0,0,1,17.16,8.92A109.74,109.74,0,0,1,214.5,44.1Z"/><path class="cls-2" d="M189.38,46.83a1,1,0,0,1-.4-.09,1,1,0,0,1-.51-1.32,41.37,41.37,0,0,1,23-21.94,1,1,0,0,1,1.26.64,1,1,0,0,1-.64,1.26A40.12,40.12,0,0,0,190.3,46.23,1,1,0,0,1,189.38,46.83Z"/><path class="cls-4" d="M333.62,388.18c-7.18,0-17.86-3.83-27.2-9.75a56.34,56.34,0,0,1-6.36-4.68c-4.18-3.59-6.32-6.95-6.57-10.26-.35-4.69,3-8.52,6.79-13l1-1.13c3.83-4.45,7.44-8.66,12.48-8.66,3.13,0,6.55,1.64,10.44,5a61.51,61.51,0,0,1,8.17,8.79c8.17,10.56,14.59,24.68,9.38,30.71C340,387.19,337.31,388.18,333.62,388.18Z"/><path class="cls-2" d="M313.73,341.74c2.71,0,5.85,1.36,9.79,4.76a60.13,60.13,0,0,1,8,8.65c8,10.34,14.19,23.91,9.41,29.44-1.56,1.81-4.16,2.59-7.34,2.59-7.54,0-18.38-4.35-26.67-9.6a57.37,57.37,0,0,1-6.24-4.58c-10.9-9.38-5.49-15.05.82-22.39,4-4.66,7.43-8.87,12.2-8.87m0-2h0c-5.5,0-9.26,4.38-13.23,9l-.49.56-.49.57c-3.81,4.41-7.41,8.58-7,13.68.27,3.6,2.53,7.18,6.91,10.95a59.3,59.3,0,0,0,6.47,4.75c7.22,4.58,18.81,9.92,27.75,9.92,4,0,7-1.11,8.86-3.28,5.61-6.5-.65-20.74-9.35-32a63.59,63.59,0,0,0-8.3-8.94c-4.09-3.52-7.72-5.24-11.1-5.24Z"/><path class="cls-4" d="M354.33,315c-1.77,0-3.53-.06-5.25-.18a59.15,59.15,0,0,1-9.57-1.4c-6.62-1.62-10.26-4.26-11.45-8.32-1.06-3.6,0-7.89,1.1-12.43l.36-1.47c1.81-7.48,3.52-14.55,12.57-14.55a26.3,26.3,0,0,1,6.19.85c1,.23,1.8.47,2.61.74,14.18,4.34,33.31,16.83,31,26.47C380,312.25,365.87,315,354.33,315Z"/><path class="cls-2" d="M342.09,277.6a25.41,25.41,0,0,1,6,.82c.82.2,1.68.43,2.53.71,13.84,4.25,32.46,16.47,30.32,25.29-1.6,6.58-14.31,9.53-26.56,9.53-1.75,0-3.49-.06-5.18-.18a57.47,57.47,0,0,1-9.4-1.37c-14-3.41-11.72-10.92-9.44-20.3,1.91-7.83,3.26-14.5,11.78-14.5m0-2h0c-9.84,0-11.72,7.79-13.55,15.32l-.17.71-.18.75c-1.15,4.68-2.23,9.09-1.09,12.95,1.3,4.44,5.17,7.3,12.17,9a59.25,59.25,0,0,0,9.74,1.42c1.74.13,3.53.19,5.32.19,12.47,0,26.51-2.91,28.51-11.05,2.69-11.13-18.86-23.74-31.68-27.68-.78-.26-1.66-.51-2.65-.74a27.19,27.19,0,0,0-6.41-.88Z"/><path class="cls-5" d="M381,302.07c-3.36,3.27-15.42,4.81-23.45,5.48a6.21,6.21,0,0,1-6.73-6.63c.28-3.56.42-7.22.42-11a85.48,85.48,0,0,0-.66-10.83c-.85-.28-1.71-.51-2.53-.71-8.44-2.06-12.31,0-14.56,3.94h0a28.72,28.72,0,0,0-2.49,7s0,.11,0,.17l-.64,2.58c-2.28,9.38-4.53,16.89,9.44,20.3a57.47,57.47,0,0,0,9.4,1.37c13.59.94,29.91-1.84,31.74-9.35A6.17,6.17,0,0,0,381,302.07Z"/><path class="cls-5" d="M320,373.7a3.62,3.62,0,0,1-.33-5.72c.88-.77,1.71-1.51,2.18-2l.37-.33c1.38-1.32,2.68-2.7,4-4.11.27-.28.52-.57.79-.87q1.85-2.08,3.58-4.3c.22-.27.41-.55.63-.82s.21-.28.34-.44a60.13,60.13,0,0,0-8-8.65c-3.82-3.3-6.88-4.64-9.53-4.72h0c-2.75-.09-5.05,1.2-7.25,3.2l-.08.07c-.46.42-.93.87-1.39,1.35l0,0-.65.69-.3.33-1,1.06-.46.53-.58.66-.77.91c-6.31,7.33-11.72,13-.82,22.38a57.37,57.37,0,0,0,6.24,4.58c11.79,7.47,28.75,13.11,34,7a7,7,0,0,0,1.53-3.55C336.05,383.5,325.62,377.46,320,373.7Z"/><path class="cls-1" d="M223.08,390.94h-1.94c-37.16-.38-66.77-6-90.51-17.13-23.21-10.88-42.18-27.71-58-51.45a239.63,239.63,0,0,1-14.15-24.42C36.73,255,30.28,177.87,35.25,127c4.38-44.85,31.14-79,71.59-91.4a120.82,120.82,0,0,1,35.38-5.11c32.36,0,63.3,13,84.88,35.54,18.7,19.58,28.36,44.5,27.19,70.16-.81,17.84-2.15,35.42-3.59,47a12.94,12.94,0,0,0,10.61,14.35,104.31,104.31,0,0,1,38.55,14.79c24.9,16.06,39.18,42.34,39.18,72.1,0,15.89-2.54,30.51-7.54,43.43a.91.91,0,0,1-.09.17c-13.15,33.88-43.34,55.66-85.05,61.33A172.18,172.18,0,0,1,223.08,390.94Z"/><path class="cls-2" d="M142.22,31.51c61.35,0,113.71,46.9,111.07,104.65-.75,16.59-2.07,34.76-3.59,46.94a13.94,13.94,0,0,0,11.43,15.46,103.68,103.68,0,0,1,38.19,14.65c24.13,15.57,38.72,41,38.72,71.26,0,16-2.59,30.45-7.48,43.07h0c-13.15,34-43.06,55.25-84.32,60.87a170.47,170.47,0,0,1-23.15,1.53h-1.93c-37.2-.38-66.4-5.91-90.1-17-23.91-11.22-42.27-28.11-57.6-51.1a234.55,234.55,0,0,1-14.09-24.33C37,253.42,31.64,174.2,36.24,127.12c4.48-45.85,31.68-78.54,70.9-90.55a119.93,119.93,0,0,1,35.08-5.06m0-2a121.84,121.84,0,0,0-35.67,5.15A100.11,100.11,0,0,0,57.1,67.91c-12.74,16-20.64,36.41-22.85,59-2.47,25.32-1.94,56.93,1.46,86.73,2.8,24.49,8.86,59.07,21.86,84.72a241.8,241.8,0,0,0,14.21,24.53c15.94,23.89,35.05,40.83,58.42,51.8,23.88,11.21,53.62,16.84,90.93,17.22h2a172.73,172.73,0,0,0,23.42-1.55c20.94-2.85,39-9.62,53.6-20.13a91.16,91.16,0,0,0,32.22-41.76,1.75,1.75,0,0,0,.11-.24c5.05-13,7.61-27.77,7.61-43.79a85,85,0,0,0-39.64-72.94,105.12,105.12,0,0,0-38.92-14.93,12,12,0,0,1-9.79-13.25c1.44-11.62,2.79-29.22,3.6-47.1,1.18-25.93-8.57-51.11-27.47-70.89-21.76-22.78-53-35.85-85.6-35.85Z"/><path class="cls-3" d="M338,284.49c0,16-2.59,30.44-7.47,43.07h0c-.75,1.93-1.55,3.78-2.41,5.62-.14.34-.29.66-.45,1-.83,1.74-1.71,3.46-2.64,5.13-.17.32-.35.65-.55,1-1,1.71-2,3.38-3.05,5a.61.61,0,0,0-.12.16c-1,1.6-2.18,3.13-3.32,4.65l-.62.82q-1.74,2.22-3.59,4.3l-.78.87c-1.29,1.41-2.59,2.79-4,4.11-.13.1-.25.23-.38.33q-2,1.88-4,3.61c-.28.25-.55.5-.85.73q-2.14,1.75-4.39,3.4c-.36.27-.73.52-1.09.77-1.55,1.09-3.12,2.16-4.73,3.16l-.71.41c-1.5.93-3,1.8-4.6,2.66-.37.19-.71.39-1.09.57-1.67.89-3.4,1.73-5.15,2.53l-1.34.59c-1.8.78-3.62,1.55-5.49,2.26l-.89.32c-1.77.64-3.57,1.27-5.41,1.84l-1.05.34c-2,.61-4,1.16-6.08,1.69l-1.29.31c-2.12.51-4.28,1-6.49,1.42-.19,0-.39.06-.59.11-2.28.41-4.58.8-6.93,1.12a1.09,1.09,0,0,0-.25,0h0A172.71,172.71,0,0,1,221.1,390c-37.18-.38-66.34-5.93-90-17H131c-.21-.09-.41-.19-.62-.3-.84-.41-1.7-.82-2.53-1.25s-1.47-.73-2.2-1.12-1.66-.88-2.48-1.32-1.42-.8-2.14-1.21-1.58-.91-2.37-1.4-1.43-.87-2.14-1.32-1.5-.94-2.23-1.42-1.59-1.07-2.37-1.62c-1-.72-2-1.43-3.07-2.18s-1.82-1.34-2.73-2l-1.76-1.43c-.77-.61-1.52-1.21-2.27-1.84L100.34,353c-.73-.65-1.46-1.29-2.19-1.95l-1.66-1.55q-1.12-1-2.19-2.1c-.52-.5-1-1-1.53-1.54-.79-.78-1.56-1.58-2.31-2.39-.44-.46-.89-.92-1.32-1.41-.94-1-1.87-2.06-2.78-3.13l-.73-.81c-1.16-1.37-2.3-2.76-3.44-4.19l-.75-1c-.86-1.11-1.71-2.21-2.57-3.35-.39-.52-.76-1.06-1.14-1.57l-2.09-2.91c-.42-.61-.85-1.23-1.26-1.86s-.66-.94-1-1.42c0,0,0,0,0,0a236,236,0,0,1-14.1-24.31C37,253.44,31.59,174.22,36.19,127.14c4.48-45.85,31.68-78.54,70.9-90.55C100.92,43.74,58.29,95.48,72,151.11c10.5,42.75,49.72,54.86,71.32,58.28a7.53,7.53,0,0,1,4.76,12.11c-9.33,11.61-22,31.41-22,53.59a56.53,56.53,0,0,0,1.3,12.09s3.67,33.64,48,24S157.09,231,160.52,231.9c2.25.6,67.23-8.49,112.62-15,9.94-1.41,18.94-2.69,26.13-3.73,20.94,13.5,34.69,34.42,38,59.5A87.38,87.38,0,0,1,338,284.49Z"/><path class="cls-6" d="M228.76,210.72l-63.93,9.78a5.88,5.88,0,0,0-5,5.82h0A5.89,5.89,0,0,0,166,232.2l104.58-4.28s-5.08-8.4-5.6-10S228.76,210.72,228.76,210.72Z"/><path class="cls-7" d="M165.72,233.2a6.89,6.89,0,0,1-6.88-6.88,6.85,6.85,0,0,1,5.84-6.81l63.93-9.77a.81.81,0,0,1,.31,0c36.26,5.78,36.74,7.22,37,7.91.35,1,3.56,6.54,5.51,9.75a1,1,0,0,1,0,1,1,1,0,0,1-.84.52L166,233.2Zm63-21.46L165,221.49a4.89,4.89,0,0,0,.94,9.71L268.82,227c-1.42-2.37-4.05-6.85-4.72-8.43C261.65,217.31,241.36,213.75,228.76,211.74Z"/><path class="cls-1" d="M337.69,276.35c-8.31-30.41-30.12-52.89-30.12-52.89l-34.42-7.14c9.94-1.41,18.94-2.69,26.13-3.73C320.22,226.1,335.61,248.5,337.69,276.35Z"/><circle class="cls-8" cx="215.49" cy="103.92" r="38.27" transform="translate(64.83 289.77) rotate(-76.72)"/><path class="cls-2" d="M215.49,66.65a37.28,37.28,0,1,1-37.28,37.27,37.27,37.27,0,0,1,37.28-37.27m0-2a39.28,39.28,0,1,0,39.27,39.27,39.32,39.32,0,0,0-39.27-39.27Z"/><circle class="cls-2" cx="231.23" cy="105.3" r="8.52"/><path class="cls-2" d="M231.23,114.82a9.52,9.52,0,1,1,9.53-9.52A9.53,9.53,0,0,1,231.23,114.82Zm0-17a7.52,7.52,0,1,0,7.53,7.52A7.53,7.53,0,0,0,231.23,97.78Z"/><path class="cls-9" d="M227.06,136.56A37.27,37.27,0,0,1,207.6,67.49,37.28,37.28,0,1,0,235,135.72,37.32,37.32,0,0,1,227.06,136.56Z"/><rect class="cls-10" x="227.76" y="120.72" width="139.93" height="108.2" rx="24.79"/><path class="cls-7" d="M342.89,121.72a23.8,23.8,0,0,1,23.8,23.79v58.62a23.8,23.8,0,0,1-23.8,23.79H252.55a23.79,23.79,0,0,1-23.79-23.79V145.51a23.79,23.79,0,0,1,23.79-23.79h90.34m0-2H252.55a25.82,25.82,0,0,0-25.79,25.79v58.62a25.82,25.82,0,0,0,25.79,25.79h90.34a25.82,25.82,0,0,0,25.8-25.79V145.51a25.82,25.82,0,0,0-25.8-25.79Z"/><path class="cls-4" d="M170.11,217.65c-3.17,0-7-1-11.35-2.1-5.19-1.32-11.07-2.83-16.82-2.83-5.58,0-11,1.45-15.85,2.73-3.85,1-7.17,1.9-9.93,1.9-5,0-7.29-3-7.32-9.33a23.92,23.92,0,0,1,7-17.38c5.17-5.19,12.54-8,20.77-8,1.15,0,2.31.06,3.47.17,15.41,1.49,28.22,6.85,34.27,14.33A16.92,16.92,0,0,1,178.25,210c-.59,5.12-3.25,7.61-8.13,7.61Z"/><path class="cls-2" d="M136.59,183.59c1.11,0,2.24.06,3.38.17,19.87,1.92,39,11,37.28,26.17-.58,5.1-3.22,6.72-7.14,6.72-6.83,0-17.58-4.93-28.17-4.93-10.11,0-19.75,4.63-25.78,4.63-3.9,0-6.29-1.94-6.32-8.34-.06-14.48,11.73-24.42,26.75-24.42m0-2c-8.5,0-16.12,3-21.48,8.34A24.91,24.91,0,0,0,107.84,208c0,6.86,2.83,10.33,8.32,10.33,2.89,0,6.27-.9,10.19-1.94,4.75-1.26,10.14-2.69,15.59-2.69,5.62,0,11.44,1.49,16.57,2.8,4.46,1.14,8.31,2.13,11.6,2.13,5.41,0,8.48-2.86,9.13-8.49a17.93,17.93,0,0,0-4.13-13.7c-6.21-7.68-19.28-13.17-35-14.69a35.71,35.71,0,0,0-3.57-.18Z"/><path class="cls-11" d="M352.59,221.46H262.25a23.79,23.79,0,0,1-23.79-23.79V139.05a23.69,23.69,0,0,1,6.18-16,23.8,23.8,0,0,0-15.88,22.42v58.62a23.79,23.79,0,0,0,23.79,23.79h90.34a23.7,23.7,0,0,0,17.61-7.83A23.77,23.77,0,0,1,352.59,221.46Z"/><path class="cls-5" d="M150.93,203.64c-16.66,0-32,12.57-32.1-3.71a23.37,23.37,0,0,1,3.71-13A23.2,23.2,0,0,0,109.84,208c.07,16.28,15.44,3.71,32.1,3.71s33.71,12.2,35.31-1.79c.06-.5.09-1,.11-1.47C170.52,207.79,160.66,203.64,150.93,203.64Z"/><rect class="cls-8" x="165.66" y="153.15" width="11.84" height="17.01" rx="5.92" transform="translate(-29.82 39.14) rotate(-11.98)"/><path class="cls-2" d="M172.1,171.11a6.91,6.91,0,0,1-6.75-5.49l-1.08-5.06a6.92,6.92,0,1,1,13.54-2.87l1.07,5.06a6.94,6.94,0,0,1-5.33,8.21h0A7.14,7.14,0,0,1,172.1,171.11Zm1.24-1.13h0ZM171,154.2a5.05,5.05,0,0,0-1,.11,4.93,4.93,0,0,0-3.79,5.83l1.07,5.07a4.92,4.92,0,0,0,9.62-2l-1.07-5.07A4.93,4.93,0,0,0,171,154.2Z"/><rect class="cls-8" x="177.24" y="150.69" width="11.84" height="17.01" rx="5.92" transform="translate(-29.06 41.49) rotate(-11.98)"/><path class="cls-2" d="M183.68,168.65a6.93,6.93,0,0,1-6.76-5.48l-1.07-5.07a6.92,6.92,0,1,1,13.53-2.87l1.08,5.06a6.93,6.93,0,0,1-5.33,8.21h0A7.14,7.14,0,0,1,183.68,168.65Zm1.24-1.13h0Zm-2.3-15.77a5,5,0,0,0-1,.1,4.92,4.92,0,0,0-3.79,5.84l1.07,5.06a4.92,4.92,0,0,0,5.83,3.79h0a4.9,4.9,0,0,0,3.79-5.83l-1.07-5.07A4.92,4.92,0,0,0,182.62,151.75Z"/><path class="cls-4" d="M192.65,149.12c1,6.56-7.11,10.63-17.65,12.24s-19.5.16-20.5-6.4,6.33-15.74,16.87-17.35S191.65,142.56,192.65,149.12Z"/><path class="cls-2" d="M167.7,163a26.86,26.86,0,0,1-6.78-.77c-4.31-1.15-6.88-3.6-7.41-7.08s1.09-7.78,4.36-11.36a22.78,22.78,0,0,1,13.34-7.13c11.12-1.7,21.36,5.36,22.43,12.34h0c1,6.56-5.74,11.44-18.49,13.39A49.31,49.31,0,0,1,167.7,163Zm7-24.6a19.8,19.8,0,0,0-3.14.24,20.76,20.76,0,0,0-12.18,6.5c-2.86,3.14-4.3,6.77-3.85,9.7.41,2.68,2.41,4.51,5.94,5.46,3.38.9,8,.94,13.42.11,11.33-1.73,17.61-5.88,16.81-11.1C190.83,143.82,183.39,138.36,174.66,138.36Z"/><ellipse class="cls-2" cx="170.78" cy="138.4" rx="9.95" ry="6.21" transform="translate(-19.97 29.15) rotate(-9.22)"/><path class="cls-2" d="M169.25,145.73a13.28,13.28,0,0,1-5.1-.95c-2.37-1-3.86-2.63-4.18-4.62-.65-4,3.59-7.89,9.65-8.87s11.32,1.37,12,5.36h0c.65,4-3.59,7.88-9.66,8.87A17.48,17.48,0,0,1,169.25,145.73Zm3-12.66a15.57,15.57,0,0,0-2.33.19c-4.78.78-8.45,3.79-8,6.58.21,1.28,1.27,2.38,3,3.1a12.47,12.47,0,0,0,6.69.6c4.79-.78,8.46-3.79,8-6.57h0C179.24,134.64,176.08,133.07,172.27,133.07Z"/><circle class="cls-8" cx="113.29" cy="121.72" r="38.27" transform="translate(-52.89 115.76) rotate(-45)"/><path class="cls-2" d="M113.29,84.44A37.28,37.28,0,1,1,76,121.72a37.28,37.28,0,0,1,37.28-37.28m0-2a39.28,39.28,0,1,0,39.27,39.28,39.32,39.32,0,0,0-39.27-39.28Z"/><circle class="cls-2" cx="129.04" cy="123.09" r="8.52"/><path class="cls-2" d="M129,132.62a9.53,9.53,0,1,1,9.52-9.53A9.54,9.54,0,0,1,129,132.62Zm0-17.05a7.53,7.53,0,1,0,7.52,7.52A7.53,7.53,0,0,0,129,115.57Z"/><path class="cls-9" d="M124.86,154.35A37.27,37.27,0,0,1,105.4,85.29a37.27,37.27,0,1,0,27.35,68.22A37.25,37.25,0,0,1,124.86,154.35Z"/><circle class="cls-8" cx="296.31" cy="161.61" r="6.6"/><circle class="cls-8" cx="311.65" cy="161.61" r="6.6"/><circle class="cls-8" cx="319.32" cy="174.82" r="6.6"/><circle class="cls-8" cx="311.65" cy="188.03" r="6.6"/><circle class="cls-8" cx="296.31" cy="188.03" r="6.6"/><circle class="cls-8" cx="288.72" cy="174.82" r="6.6"/><circle class="cls-8" cx="303.99" cy="148.79" r="3.94"/><circle class="cls-8" cx="326.55" cy="161.81" r="3.94"/><circle class="cls-8" cx="326.55" cy="187.83" r="3.94"/><circle class="cls-8" cx="281.45" cy="161.81" r="3.94"/><circle class="cls-8" cx="281.45" cy="187.83" r="3.94"/><circle class="cls-8" cx="303.99" cy="200.95" r="3.94"/><circle class="cls-8" cx="286.99" cy="145.65" r="3.35"/><circle class="cls-8" cx="270.14" cy="174.82" r="3.35"/><circle class="cls-8" cx="337.97" cy="174.82" r="3.35"/><circle class="cls-8" cx="320.8" cy="145.65" r="3.35"/><circle class="cls-8" cx="286.99" cy="203.99" r="3.35"/><circle class="cls-8" cx="320.8" cy="203.99" r="3.35"/><circle class="cls-8" cx="258.29" cy="174.82" r="2.18"/><circle class="cls-8" cx="349.94" cy="174.82" r="2.18"/><circle class="cls-8" cx="281.03" cy="135.23" r="2.18"/><circle class="cls-8" cx="327.04" cy="135.23" r="2.18"/><circle class="cls-8" cx="281.03" cy="214.41" r="2.18"/><circle class="cls-8" cx="327.04" cy="214.41" r="2.18"/><circle class="cls-8" cx="267.93" cy="154.1" r="2.6"/><circle class="cls-8" cx="303.99" cy="133.05" r="2.6"/><circle class="cls-8" cx="303.99" cy="216.59" r="2.6"/><circle class="cls-8" cx="267.93" cy="195.54" r="2.6"/><circle class="cls-8" cx="340.3" cy="154.1" r="2.6"/><circle class="cls-8" cx="340.3" cy="195.54" r="2.6"/></svg>